Coordinates
version=1
nRows=12
nColumns=24
inDegrees=yes

Units are S.I. units (second, meters, Newtons, ...)
Angles are in degrees.

endheader
time	pelvis_tilt	pelvis_list	pelvis_rotation	pelvis_tx	pelvis_ty	pelvis_tz	hip_flexion_r	hip_adduction_r	hip_rotation_r	knee_angle_r	ankle_angle_r	subtalar_angle_r	mtp_angle_r	hip_flexion_l	hip_adduction_l	hip_rotation_l	knee_angle_l	ankle_angle_l	subtalar_angle_l	mtp_angle_l	lumbar_extension	lumbar_bending	lumbar_rotation
      1.39466667	     -1.23136014	      1.34175173	     -3.76564070	      0.93097926	      0.95618245	      0.30634657	    -22.64145490	     -1.25602576	     -2.90133669	     -5.26460106	     18.74356358	      2.68379271	      3.61829676	     26.88005635	     -0.29552226	      2.14262636	      4.85482947	      1.59893316	     -5.61158670	      2.02085101	    -11.57762465	      3.07084847	      9.85000442
      1.39883333	     -1.28390572	      1.53264313	     -3.78400137	      0.93716438	      0.95533408	      0.30581985	    -22.75671184	     -1.52854441	     -3.04703743	     -5.65990757	     18.60623959	      2.78980559	      3.98360775	     27.01457788	     -0.05563080	      2.37619629	      4.25849099	      1.20909396	     -6.08766963	      2.16865358	    -11.46036031	      2.80221467	      9.83737873
      1.40300000	     -1.21555291	      1.76111787	     -3.76446886	      0.94343737	      0.95467065	      0.30526156	    -23.04102769	     -1.82704167	     -3.25909793	     -5.97027725	     18.29789325	      2.81537532	      6.52613185	     27.00118421	      0.24944975	      2.64276365	      3.68461398	      0.72069269	     -6.62927526	      3.23406865	    -11.48523176	      2.47458042	      9.76910377
      1.40716667	     -1.36332910	      1.98125827	     -3.81406123	      0.94968005	      0.95379860	      0.30477055	    -23.01831664	     -2.13284076	     -3.30464923	     -6.42923983	     18.13010380	      2.78461262	      6.60654579	     27.28115668	      0.50664676	      2.70027742	      2.94305696	      0.32223865	     -6.92781013	      3.25123154	    -11.24328639	      2.15749809	      9.77097199
      1.41133333	     -1.45955121	      2.18759423	     -3.82974948	      0.95593165	      0.95300899	      0.30417715	    -23.02028972	     -2.42625199	     -3.50104835	     -6.95846943	     17.98210145	      2.96124764	      6.85325452	     27.47442920	      0.77796314	      2.94411754	      2.27143889	     -0.34732088	     -7.64428068	      3.31523186	    -11.05922026	      1.88733653	      9.78391471
      1.41550000	     -1.52880660	      2.44302987	     -3.84072654	      0.96226590	      0.95230437	      0.30359194	    -23.08070296	     -2.76303532	     -3.65930930	     -7.42153913	     17.74133088	      3.02115087	      7.14286041	     27.64594960	      1.10482452	      3.10250063	      1.57035291	     -1.04524732	     -8.25230416	      3.39390234	    -10.90529972	      1.54382548	      9.75480511
      1.41966667	     -1.58689207	      2.71513174	     -3.82222117	      0.96863001	      0.95163963	      0.30295253	    -23.14130177	     -3.10811629	     -3.87396323	     -7.91397892	     17.44792308	      3.06186162	      7.71340948	     27.81313895	      1.46763531	      3.33280429	      0.84641713	     -1.75603036	     -8.93598134	      3.54714231	    -10.76715046	      1.16552999	      9.72383120
      1.42383333	     -1.66578452	      2.99644973	     -3.81570348	      0.97503228	      0.95100569	      0.30231493	    -23.17039070	     -3.46662711	     -4.06315568	     -8.41672445	     17.10444584	      3.09134220	      8.54078418	     28.01026875	      1.83695793	      3.49044944	      0.10104435	     -2.55705196	     -9.59686196	      3.76719920	    -10.59354845	      0.78589401	      9.70140138
      1.42800000	     -1.79626871	      3.25997338	     -3.85462716	      0.98138194	      0.95038440	      0.30174954	    -23.09669584	     -3.81746936	     -4.12597161	     -8.99758215	     16.77879954	      3.01778630	      8.90094299	     28.29112406	      2.16135855	      3.47235271	     -0.70120480	     -3.40341721	    -10.05414846	      3.84839095	    -10.37081365	      0.45137576	      9.65187225
      1.43216667	     -1.88826107	      3.56359377	     -3.85086124	      0.98780019	      0.94983100	      0.30108081	    -23.06568462	     -4.20266204	     -4.31153470	     -9.58399448	     16.38543870	      3.01438582	      9.43596830	     28.52350553	      2.55790572	      3.61042545	     -1.49949443	     -4.26620067	    -10.71537508	      3.95678280	    -10.19547818	      0.05613575	      9.61722787
      1.43633333	     -1.99280655	      3.86896045	     -3.84183486	      0.99423220	      0.94931902	      0.30041415	    -23.01608533	     -4.58292122	     -4.45783641	    -10.17482495	     15.95391990	      2.93815412	     10.00617121	     28.79017778	      2.95828534	      3.66709068	     -2.34938665	     -5.11726664	    -11.28090374	      4.05769498	     -9.98871325	     -0.34751089	      9.57101116
      1.44050000	     -2.05432428	      4.20353545	     -3.81245898	      1.00072649	      0.94890137	      0.29972433	    -23.02510717	     -4.98681007	     -4.65251778	    -10.72677858	     15.31869828	      2.74741886	     16.60021181	     29.02633801	      3.39982406	      3.68911543	     -3.23946028	     -5.87478475	    -11.71721851	      5.19602453	     -9.84360806	     -0.78726286	      9.49635494
